<?xml version="1.0" encoding="UTF-8"?>
<svg id="Layer_1" data-name="Layer 1" xmlns="http://www.w3.org/2000/svg" viewBox="0 0 1117.95 1006.84">
  <defs>
    <style>
      .cls-1 {
        fill: #000;
        stroke-width: 0px;
      }
    </style>
  </defs>
  <g>
    <path class="cls-1" d="M610.44,651.61c-5.99-11.82,10.78-24.04,24.04-24.04s22.87,10.83,24.03,24.04c4.17,47.14-19.46,63.24-19.46,63.24-10.72,7.25-23.23,11.98-36.58,13.88v.82l-8.67.11h-7.92c-48.78-1.81-83.95-38.44-83.95-87.12s35.93-86.12,83.57-87.78h20.96c12.95,0,23.48,10.53,23.48,23.47s-10.53,23.48-23.48,23.48h-20.38c-16.18,1.14-34.99,12.51-34.99,40.83,0,25.26,17.55,37.89,35.03,39.26h5.92c6.88-.55,13.71-2.98,19.27-6.86,0,0,6.44-8.9-.88-23.34Z"/>
    <path class="cls-1" d="M292.23,726.52c13.31,0,24.15-10.83,24.15-24.14v-120.34c0-13.31-10.83-24.14-24.15-24.14s-24.14,10.83-24.14,24.14v120.34c0,13.31,10.83,24.14,24.14,24.14Z"/>
    <path class="cls-1" d="M753.77,680.21h-31.75v-99.15c0-12.76-10.39-23.15-23.16-23.15h-1.53c-12.77,0-23.16,10.38-23.16,23.15v122.31c0,12.77,10.39,23.15,23.16,23.15h56.44c12.77,0,23.16-10.38,23.16-23.15s-10.39-23.16-23.16-23.16Z"/>
    <path class="cls-1" d="M386.59,702.49c0,13.25-10.78,24.03-24.04,24.03s-24.03-10.78-24.03-24.03v-114.42c0-16.63,13.53-30.17,30.17-30.17h5.38c10.55,0,20.14,5.36,25.68,14.33l39.17,63.46v-53.98c0-13.13,10.78-23.81,24.04-23.81s23.82,10.68,23.82,23.81v114.63c0,16.63-13.54,30.17-30.17,30.17-10.45,0-20.01-5.29-25.56-14.14l-44.9-71.66.47,61.77Z"/>
    <path class="cls-1" d="M1006.56,620.91l-20.88-3.95c-9.92-1.82-9.92-6.27-9.92-8.4,0-3.91,4.49-9.79,13.95-10h35.69c12.11,0,21.96-9.85,21.96-21.96s-9.85-21.96-21.96-21.96h-35.76c-34.37.47-61.29,25.3-61.29,56.54,0,26.09,18.71,46.53,47.72,52.09l21.2,3.95c3.4.65,11.31,2.83,11.31,9.07,0,8.92-11.72,9.61-15.31,9.61-1.05,0-2.07-.05-3.06-.11l-34.43-.02c-12.11,0-21.96,9.85-21.96,21.96s9.85,21.96,21.94,21.96l35.17.06c.62.03,1.25.06,1.9.06,41.59,0,64.03-28.7,64.03-55.7h0c0-26.65-19.77-47.52-50.31-53.18Z"/>
    <path class="cls-1" d="M844.62,663.73h46.59s17.17-2.65,17.62-19.3v-2.19c0-12.04-9.8-21.84-21.85-21.84h-42.36c-4.57,0-8.31-3.74-8.31-8.31h0c0-4.57,3.74-8.31,8.31-8.31h41.41c12.05,0,21.85-9.8,21.85-21.84v-2.19c0-12.04-9.8-21.84-21.85-21.84h-67.95c-12.04,0-21.84,9.8-21.84,21.84v60.35c0,.24,0,.47,0,.72v61.25s0,2.63,0,2.63c0,12.04,9.8,21.84,21.84,21.84h68.17c12.04,0,21.84-9.8,21.84-21.84v-2.4c0-5.83-2.26-11.31-6.38-15.44-4.13-4.14-9.62-6.41-15.45-6.41h-25.1l.05-.09h-16.57c-4.57,0-8.31-3.74-8.31-8.31s3.74-8.31,8.31-8.31Z"/>
    <path class="cls-1" d="M104.69,702.8c0,13.07-10.64,23.71-23.71,23.71-13.08,0-23.72-10.64-23.72-23.71l1-61.3v-48.19c0-18.28,14.87-33.15,33.15-33.15,13.54,0,25.6,8.11,30.7,20.65l29.21,71.75,27.51-71.2c4.9-12.68,17.33-21.2,30.92-21.2h2.03c8.85,0,17.17,3.45,23.44,9.72,6.27,6.27,9.72,14.59,9.71,23.44v110.46c0,12.53-10.2,22.73-22.73,22.73h-1.07c-12.54,0-22.74-10.2-22.74-22.73v-51.06s-22.34,56.75-22.34,56.75c-4.07,10.35-13.89,17.04-25.02,17.04-11.07,0-20.88-6.64-24.98-16.92l-23.86-59.85,2.5,53.06Z"/>
  </g>
  <g>
    <path class="cls-1" d="M436.97,229.55c40.07-24.22,79.5-24.8,119.15.54,18.91-13.88,40.12-22,64.09-21.77,23.77.22,45.45,6.94,64.45,21.42,3.57-2.15,6.97-4.33,10.49-6.29,11.38-6.34,23.64-9.86,36.58-11.19,6.86-.7,13.7-1.48,20.56-.02,19.71,4.17,33.97,22.53,33.07,42.61-.85,18.83-16.72,36.25-35.38,38.75-2.59.35-5.25.22-7.84.54-6.04.74-11.12,3.32-14.73,8.36-.46.64-.82,1.53-.81,2.3.14,19.32.31,38.64.54,57.96.03,2.26.22,4.56.7,6.76,1.23,5.53,4.71,9.28,9.87,11.46,9.35,3.94,17.03,9.86,22.42,18.56,16.65,26.87-.34,62.99-31.65,67.2-9.32,1.25-18.1-.95-26.56-4.54-4.5-1.9-8.92-4.05-13.14-6.5-4.16-2.41-8.01-5.34-11.96-8.02-38.82,22.42-77.38,22.54-115.64-1.49-41.54,28.06-83.5,28.02-126.33,1.62-1.01.7-2.4,1.66-3.79,2.61-9.09,6.15-18.92,10.72-29.7,12.87-17.08,3.41-34.3-5.11-42.75-20.81-11.39-21.16-3.33-46.24,18.3-57.02,3.03-1.51,6.09-3.06,8.88-4.95,1.59-1.08,2.75-2.83,3.97-4.39,1.33-1.69,1.64-3.6,1.39-5.8-.4-3.59-.57-7.23-.57-10.85,0-14.28.02-28.56.22-42.83.16-11.8-7.74-19.78-19.61-19.75-9.95.02-18.61-3.73-26.1-10.06-9.13-7.72-14.95-17.43-16.13-29.51-1.28-13.09,2.65-24.6,11.43-34.3,10.56-11.66,23.99-15.91,39.45-14.41,9.48.92,18.89,2.21,27.96,5.31,9.96,3.4,19.12,8.27,27.57,14.5.62.46,1.26.9,1.6,1.15ZM555.88,441.99c-20.7-19.55-31.55-44.08-37.05-71.85-.53.95-.92,1.65-1.31,2.34-5.03,8.98-15.26,13.64-25.53,11.62-9.06-1.78-17.36-10.59-18.32-20.08-.51-4.98-.17-10.05-.21-15.09-.09-13-.05-26-.31-38.99-.09-4.59-.64-9.21-1.42-13.73-3.08-17.9-10.73-33.65-22.84-47.19-11.88-13.28-25.89-23.49-42.89-29.3-8.63-2.95-17.59-4.04-26.63-4.97-9.19-.94-17.75.35-25.74,5.12-13.27,7.92-20.63,22.96-18.47,38.32,2.57,18.2,19.86,32.85,37,32.66,14.53-.16,24.75,10.69,24.7,25.24-.02,5.89-.27,11.79-.26,17.68.02,9.66.2,19.32.25,28.97.04,7.62,1.06,15.11,2.86,22.48,5.53,22.64,18.01,40.8,36.21,55.05,14.34,11.22,30.67,18.05,48.83,20.04,10.98,1.2,21.98.89,32.86-1.19,14.08-2.69,26.63-8.84,38.27-17.17ZM599.65,303.81c.46-.67.66-.95.84-1.24,4.31-6.88,10.46-10.76,18.6-11.52,13.16-1.23,25.15,9.55,25.17,22.76.02,16.91-.15,33.82.1,50.73.09,6.49.72,13.04,1.79,19.44,2.1,12.48,6.84,24.02,13.72,34.67,10.92,16.94,25.01,30.21,43.95,37.8,7.88,3.16,15.9,5.37,24.6,4.1,18.87-2.76,33-20.41,32.08-39.3-.79-16.22-9.29-27.52-24.11-34.15-2.31-1.03-4.58-2.28-6.6-3.8-6.12-4.62-8.68-11.12-8.74-18.54-.14-16.48,0-32.97-.1-49.45-.07-10.39-1.43-20.63-4.42-30.62-5.85-19.54-17.3-35.22-32.98-48.02-6.9-5.63-14.34-10.49-22.52-13.92-8.26-3.47-16.9-5.85-25.86-7.13-8.78-1.25-17.53-1.61-26.3-.62-14.21,1.6-27.39,6.34-39.62,13.71-2.83,1.71-5.56,3.58-8.46,5.46,19.01,19.94,33.98,41.76,38.84,69.65ZM479.75,333.29c-.08,0-.16,0-.23,0,0,9.38-.01,18.76,0,28.14.01,6.63,5.17,13.84,11.44,16.04,11.6,4.07,23.49-4.32,23.57-16.68.04-6.67-.11-13.35-.07-20.02.07-11.29.24-22.59.32-33.88,0-.75-.19-1.56-.52-2.23-6.5-13.1-26.62-14.32-34.73-2.11-.36.54-.53,1.32-.51,1.98.22,9.59.48,19.17.73,28.76ZM638.26,340.98s-.04,0-.05,0c0-4.47.01-8.95,0-13.42-.01-4.55,0-9.09-.09-13.64-.13-6.91-3.54-11.94-9.55-14.95-11.63-5.83-25.13,2.61-25.23,15.64-.05,6.46.13,12.93.09,19.39-.09,12.35-.29,24.7-.39,37.06,0,.71.29,1.54.72,2.12,8.07,10.84,25.56,12.12,34-2.28.37-.62.48-1.48.49-2.22.03-9.23.02-18.46.02-27.7ZM719.79,242.74c-.02,7.71,4.9,13.02,12.1,13.05,7.74.04,13.06-5.08,13.1-12.6.04-6.97-5.55-12.61-12.51-12.63-7.02-.02-12.67,5.41-12.69,12.18Z"/>
    <path class="cls-1" d="M385,258.84c-9.36,0-16.01-6.6-15.98-15.86.02-8.42,7.24-15.64,15.61-15.62,8.5.02,15.68,7.11,15.67,15.48-.01,9.37-6.36,16.01-15.3,16ZM375.13,243.1c.01,5.78,3.98,9.68,9.83,9.69,5.58,0,9.28-3.96,9.28-9.95,0-5.06-4.45-9.33-9.68-9.28-5.12.05-9.45,4.42-9.43,9.54Z"/>
  </g>
</svg>